<svg height="512pt" viewBox="0 -4 512 512" width="512pt" xmlns="http://www.w3.org/2000/svg"><path d="m388.359375 116.40625c-.476563-.160156-.960937-.238281-1.4375-.390625-29.015625-36.246094-72.703125-60.210937-122.09375-62.78125l-26.484375.707031c-45.753906 4.800782-85.996094 28.011719-113.273438 62.074219-.496093.152344-1 .238281-1.484374.40625-68.988282 23.507813-114.757813 69.042969-114.757813 139.582031 0 109.691406 88.273437 238.347656 247.171875 238.347656s247.171875-128.65625 247.171875-238.347656c0-70.566406-45.796875-116.097656-114.8125-139.597656zm0 0" fill="#dd352e"/><path d="m114.265625 163.289062c-5.527344 1.703126-8.335937 4.441407-8.335937 4.441407 2.746093-1.644531 5.527343-3.117188 8.335937-4.441407zm0 0" fill="#61b872"/><path d="m300.136719 158.902344s-35.308594-17.65625-35.308594-79.449219v-70.621094l-26.484375 17.65625v52.964844s0 79.449219-17.652344 79.449219c-16.554687 0-64.167968-15.527344-106.425781 4.386718 8.4375-2.59375 23.285156-2.738281 44.632813 13.269532 0 0 17.652343 17.652344 79.445312 8.824218 0 0 35.3125 52.96875 35.3125 79.449219 0 0 26.480469-44.136719 8.828125-79.449219 0 0 17.652344 17.65625 52.964844-8.824218 0 0 35.308593-26.484375 61.792969 8.824218 0 0-26.484376-61.792968-97.105469-26.480468zm0 0" fill="#61b872"/><g fill="#4d007e"><path d="m310.421875 132.417969c-3.929687 0-7.511719-2.640625-8.535156-6.609375-1.21875-4.722656 1.613281-9.535156 6.328125-10.761719l5.792968-1.519531c27.125-7.105469 52.75-13.804688 77.195313-5.480469 4.617187 1.570313 7.078125 6.585937 5.507813 11.199219-1.570313 4.609375-6.601563 7.109375-11.203126 5.511718-19.417968-6.605468-42.546874-.558593-67.035156 5.859376l-5.835937 1.519531c-.742188.203125-1.480469.28125-2.214844.28125zm0 0"/><path d="m201.585938 132.4375c-.730469 0-1.472657-.089844-2.214844-.285156l-5.808594-1.515625c-24.515625-6.417969-47.679688-12.457031-67.125-5.863281-4.625 1.605468-9.632812-.898438-11.203125-5.507813s.890625-9.632813 5.507813-11.203125c24.472656-8.351562 50.132812-1.632812 77.296874 5.492188l5.761719 1.507812c4.722657 1.226562 7.558594 6.039062 6.332031 10.761719-1.035156 3.980469-4.617187 6.613281-8.546874 6.613281zm0 0"/><path d="m105.941406 176.558594c-2.660156 0-5.273437-1.203125-7-3.445313-2.738281-3.539062-2.386718-8.578125.828125-11.703125.722657-.707031 4.695313-4.335937 11.890625-6.558594 4.421875-1.351562 9.152344.917969 10.832032 5.234376 1.675781 4.304687-.265626 9.195312-4.449219 11.183593-2.550781 1.199219-5.078125 2.542969-7.566407 4.035157-1.421874.855468-2.984374 1.253906-4.535156 1.253906zm0 0"/><path d="m273.65625 273.660156c-.785156 0-1.574219-.105468-2.359375-.316406-3.820313-1.0625-6.46875-4.539062-6.46875-8.511719 0-17.714843-20.09375-53.027343-30.851563-69.96875-56.09375 6.894531-76.632812-7.898437-80.710937-11.5-14.019531-10.417969-26.933594-14.574219-36.414063-11.644531-4.414062 1.386719-9.15625-.925781-10.824218-5.253906-1.667969-4.324219.285156-9.195313 4.476562-11.175782 34.683594-16.347656 72.449219-10.53125 95.011719-7.058593 5.746094.890625 10.796875 1.65625 14.113281 1.808593 5.316406-5.90625 9.878906-38.144531 9.886719-70.59375v-52.964843c0-2.949219 1.476563-5.703125 3.929687-7.347657l26.484376-17.652343c2.707031-1.800781 6.195312-1.96875 9.066406-.441407 2.867187 1.542969 4.660156 4.535157 4.660156 7.792969v70.621094c0 44.429687 19.128906 63.390625 27.109375 69.359375 23.277344-10.601562 44.640625-12.5 63.558594-5.570312 28.6875 10.503906 40.535156 37.515624 41.03125 38.664062 1.753906 4.105469.175781 8.878906-3.699219 11.121094-3.867188 2.21875-8.800781 1.238281-11.484375-2.355469-20.941406-27.921875-48.28125-7.917969-49.4375-7.0625-18.757813 14.082031-33.65625 17.152344-44.410156 16.226563 5.792969 34.101562-14.105469 67.867187-15.113281 69.535156-1.605469 2.71875-4.511719 4.289062-7.554688 4.289062zm-35.3125-97.101562c2.921875 0 5.695312 1.453125 7.34375 3.925781 2.695312 4.042969 20.386719 30.996094 30.21875 56.382813 4.148438-14 6.433594-32.019532-1.324219-47.535157-1.933593-3.867187-.777343-8.582031 2.738281-11.117187 3.511719-2.515625 8.339844-2.136719 11.402344.917968.378906.320313 13.367188 11.40625 41.429688-9.648437 5.84375-4.386719 14.820312-8.914063 25.105468-10.652344-14.761718-4.308593-31.949218-1.652343-51.164062 7.953125-2.492188 1.242188-5.414062 1.242188-7.902344 0-1.640625-.804687-40.191406-20.84375-40.191406-87.332031v-54.121094l-8.828125 5.886719v48.242188c0 72.960937-14.398437 88.277343-26.480469 88.277343-4.601562 0-10.453125-.902343-17.859375-2.039062-13.382812-2.046875-30.949219-4.777344-49.390625-3.347657 3.433594 1.988282 7.019532 4.34375 10.761719 7.160157.335937.246093.644531.53125.941406.820312.019531 0 16.933594 14.1875 71.964844 6.332031.40625-.082031.820313-.105468 1.234375-.105468zm0 0"/><path d="m256 503.175781c-95.65625 0-155.949219-43.996093-189.6875-80.902343-42.140625-46.097657-66.3125-106.699219-66.3125-166.269532 0-69.632812 41.464844-120.679687 119.941406-147.667968 29.667969-35.925782 71.28125-58.332032 117.484375-63.179688 2.472657-.289062 4.972657.550781 6.824219 2.21875 1.855469 1.667969 2.921875 4.066406 2.921875 6.566406v25.519532c0 72.960937-14.398437 88.277343-26.480469 88.277343-4.601562 0-10.453125-.902343-17.859375-2.039062-13.382812-2.046875-30.949219-4.777344-49.390625-3.347657 3.433594 1.988282 7.019532 4.34375 10.761719 7.160157.335937.246093.644531.53125.941406.820312.019531 0 16.933594 14.1875 71.964844 6.332031 3.371094-.476562 6.707031 1.023438 8.589844 3.847657 2.691406 4.042969 20.382812 30.992187 30.214843 56.382812 4.148438-14 6.4375-32.019531-1.324218-47.539062-1.933594-3.867188-.777344-8.578125 2.738281-11.113281 3.511719-2.515626 8.339844-2.136719 11.40625.917968.378906.320313 13.363281 11.40625 41.425781-9.648437 5.84375-4.386719 14.820313-8.914063 25.097656-10.65625-14.75-4.304688-31.949218-1.648438-51.164062 7.957031-2.492188 1.242188-5.414062 1.242188-7.902344 0-1.640625-.832031-40.191406-20.871094-40.191406-87.359375v-26.21875c0-2.417969.996094-4.730469 2.753906-6.40625 1.757813-1.679687 4.132813-2.554687 6.53125-2.410156 49.234375 2.558593 95.277344 25.820312 126.785156 63.929687 78.457032 26.984375 119.929688 78.035156 119.929688 147.65625 0 59.5625-24.171875 120.164063-66.3125 166.269532-33.738281 36.90625-94.03125 80.902343-189.6875 80.902343zm-26.484375-439.136719c-38.460937 6.4375-72.816406 26.609376-97.550781 57.496094-1.097656 1.359375-2.570313 2.375-4.230469 2.894532-.195313.070312-1.058594.300781-1.253906.34375-49.671875 16.914062-108.824219 53.40625-108.824219 131.230468 0 141.773438 123.71875 229.519532 238.34375 229.519532s238.34375-87.746094 238.34375-229.519532c0-77.796875-59.109375-114.296875-108.738281-131.210937-.300781-.089844-1.289063-.34375-1.410157-.390625-1.632812-.539063-3.082031-1.535156-4.160156-2.875-26.429687-33.007813-64.800781-54.078125-106.378906-58.714844v16.648438c0 44.429687 19.128906 63.390624 27.109375 69.359374 23.277344-10.601562 44.640625-12.5 63.558594-5.570312 28.6875 10.503906 40.535156 37.515625 41.03125 38.664062 1.753906 4.105469.175781 8.882813-3.699219 11.125-3.867188 2.214844-8.800781 1.234376-11.484375-2.359374-20.941406-27.921876-48.28125-7.917969-49.4375-7.0625-18.757813 14.082031-33.65625 17.152343-44.410156 16.226562 5.792969 34.101562-14.105469 67.867188-15.113281 69.535156-2.039063 3.40625-6.097657 5.015625-9.921876 3.964844-3.8125-1.0625-6.460937-4.539062-6.460937-8.511719 0-17.714843-20.09375-53.027343-30.851563-69.96875-56.09375 6.894531-76.632812-7.898437-80.710937-11.5-13.746094-10.214843-26.429687-14.414062-35.839844-11.8125-2.339843 1.128907-4.664062 2.375-6.957031 3.742188-3.839844 2.324219-8.800781 1.371093-11.527344-2.179688-2.738281-3.539062-2.386718-8.578125.828125-11.703125.707031-.679687 4.464844-4.132812 11.273438-6.367187 34.53125-16.03125 72.023437-10.265625 94.472656-6.804688 5.746094.890625 10.796875 1.660157 14.113281 1.808594 5.316406-5.90625 9.878906-38.144531 9.886719-70.59375zm0 0"/><path d="m98.886719 401.316406c-2.390625 0-4.777344-.960937-6.515625-2.871094-29.15625-31.890624-48.675782-72.605468-54.960938-114.652343-.722656-4.820313 2.605469-9.3125 7.425782-10.035157 4.855468-.644531 9.3125 2.605469 10.035156 7.433594 5.6875 38.046875 24.109375 76.4375 50.53125 105.347656 3.292968 3.601563 3.035156 9.179688-.558594 12.472657-1.695312 1.535156-3.828125 2.304687-5.957031 2.304687zm-53.371094-154.128906c-.46875 0-.9375-.035156-1.414063-.117188-4.808593-.765624-8.085937-5.296874-7.316406-10.105468 2.25-14.011719 7.113282-27.011719 14.476563-38.640625 2.605469-4.121094 8.058593-5.355469 12.183593-2.742188 4.121094 2.601563 5.347657 8.046875 2.742188 12.171875-6.070312 9.605469-10.097656 20.375-11.960938 32-.703124 4.351563-4.457031 7.433594-8.710937 7.433594zm0 0"/><path d="m141.242188 248.679688c-2.472657 0-4.917969-1.027344-6.664063-3.039063-3.195313-3.679687-2.808594-9.257813.863281-12.453125 26.773438-23.28125 68.203125-37.386719 113.664063-38.726562 5.015625.042968 8.941406 3.695312 9.082031 8.570312.144531 4.871094-3.6875 8.941406-8.5625 9.082031-41.453125 1.210938-78.847656 13.753907-102.601562 34.394531-1.667969 1.457032-3.726563 2.171876-5.78125 2.171876zm0 0"/><path d="m370.75 248.660156c-2.046875 0-4.113281-.714844-5.792969-2.164062-18.695312-16.25-46.421875-27.742188-78.070312-32.351563-4.828125-.699219-8.164063-5.183593-7.457031-10.011719.703124-4.820312 5.164062-8.234374 10.007812-7.457031 34.957031 5.082031 65.890625 18.050781 87.113281 36.492188 3.679688 3.195312 4.066407 8.773437.871094 12.457031-1.753906 2.011719-4.210937 3.035156-6.671875 3.035156zm0 0"/></g></svg>